<mxfile host="app.diagrams.net" agent="Mozilla/5.0 (Windows NT 10.0; Win64; x64) AppleWebKit/537.36 (KHTML, like Gecko) Chrome/130.0.0.0 Safari/537.36" version="24.8.6">
  <diagram name="Page-1" id="BJqC1ovAcczYbnIk05Uf">
    <mxGraphModel dx="1235" dy="614" grid="1" gridSize="10" guides="1" tooltips="1" connect="1" arrows="1" fold="1" page="1" pageScale="1" pageWidth="850" pageHeight="1100" math="0" shadow="0">
      <root>
        <mxCell id="0" />
        <mxCell id="1" parent="0" />
        <mxCell id="de5sUrcGSlNE6M8sQPrc-1" value="&lt;font style=&quot;font-size: 32px;&quot;&gt;SoundCloud&lt;/font&gt;" style="text;html=1;align=center;verticalAlign=middle;resizable=0;points=[];autosize=1;strokeColor=none;fillColor=none;" vertex="1" parent="1">
          <mxGeometry x="10" y="10" width="200" height="50" as="geometry" />
        </mxCell>
        <mxCell id="de5sUrcGSlNE6M8sQPrc-2" value="&lt;font style=&quot;font-size: 22px;&quot;&gt;User&lt;/font&gt;" style="swimlane;childLayout=stackLayout;horizontal=1;startSize=50;horizontalStack=0;rounded=1;fontSize=14;fontStyle=0;strokeWidth=2;resizeParent=0;resizeLast=1;shadow=0;dashed=0;align=center;arcSize=4;whiteSpace=wrap;html=1;" vertex="1" parent="1">
          <mxGeometry x="910" y="590" width="160" height="120" as="geometry" />
        </mxCell>
        <mxCell id="de5sUrcGSlNE6M8sQPrc-3" value="&lt;font style=&quot;font-size: 16px;&quot;&gt;UserID&lt;/font&gt;&lt;div style=&quot;font-size: 16px;&quot;&gt;&lt;font style=&quot;font-size: 16px;&quot;&gt;Username&lt;/font&gt;&lt;/div&gt;&lt;div style=&quot;font-size: 16px;&quot;&gt;&lt;font style=&quot;font-size: 16px;&quot;&gt;Email&lt;/font&gt;&lt;/div&gt;" style="align=left;strokeColor=none;fillColor=none;spacingLeft=4;fontSize=12;verticalAlign=top;resizable=0;rotatable=0;part=1;html=1;" vertex="1" parent="de5sUrcGSlNE6M8sQPrc-2">
          <mxGeometry y="50" width="160" height="70" as="geometry" />
        </mxCell>
        <mxCell id="de5sUrcGSlNE6M8sQPrc-4" value="&lt;font style=&quot;font-size: 22px;&quot;&gt;Song&lt;/font&gt;" style="swimlane;childLayout=stackLayout;horizontal=1;startSize=50;horizontalStack=0;rounded=1;fontSize=14;fontStyle=0;strokeWidth=2;resizeParent=0;resizeLast=1;shadow=0;dashed=0;align=center;arcSize=4;whiteSpace=wrap;html=1;" vertex="1" parent="1">
          <mxGeometry x="500" y="540" width="160" height="180" as="geometry" />
        </mxCell>
        <mxCell id="de5sUrcGSlNE6M8sQPrc-5" value="&lt;font style=&quot;font-size: 18px;&quot;&gt;Name&lt;/font&gt;&lt;div style=&quot;font-size: 18px;&quot;&gt;&lt;font style=&quot;font-size: 18px;&quot;&gt;Length&lt;/font&gt;&lt;/div&gt;&lt;div style=&quot;font-size: 18px;&quot;&gt;&lt;font style=&quot;font-size: 18px;&quot;&gt;Likes&lt;/font&gt;&lt;/div&gt;&lt;div style=&quot;font-size: 18px;&quot;&gt;&lt;font style=&quot;font-size: 18px;&quot;&gt;Plays&lt;/font&gt;&lt;/div&gt;&lt;div style=&quot;font-size: 18px;&quot;&gt;&lt;font style=&quot;font-size: 18px;&quot;&gt;UploadDate&lt;/font&gt;&lt;/div&gt;" style="align=left;strokeColor=none;fillColor=none;spacingLeft=4;fontSize=12;verticalAlign=top;resizable=0;rotatable=0;part=1;html=1;" vertex="1" parent="de5sUrcGSlNE6M8sQPrc-4">
          <mxGeometry y="50" width="160" height="130" as="geometry" />
        </mxCell>
        <mxCell id="de5sUrcGSlNE6M8sQPrc-6" value="&lt;font style=&quot;font-size: 22px;&quot;&gt;Playlist&lt;/font&gt;" style="swimlane;childLayout=stackLayout;horizontal=1;startSize=50;horizontalStack=0;rounded=1;fontSize=14;fontStyle=0;strokeWidth=2;resizeParent=0;resizeLast=1;shadow=0;dashed=0;align=center;arcSize=4;whiteSpace=wrap;html=1;" vertex="1" parent="1">
          <mxGeometry x="1070" y="260" width="160" height="130" as="geometry" />
        </mxCell>
        <mxCell id="de5sUrcGSlNE6M8sQPrc-7" value="&lt;font style=&quot;font-size: 18px;&quot;&gt;PlaylistId&lt;/font&gt;&lt;div style=&quot;font-size: 18px;&quot;&gt;&lt;font style=&quot;font-size: 18px;&quot;&gt;Title&lt;/font&gt;&lt;/div&gt;&lt;div style=&quot;font-size: 18px;&quot;&gt;&lt;font style=&quot;font-size: 18px;&quot;&gt;CreationDate&lt;/font&gt;&lt;/div&gt;" style="align=left;strokeColor=none;fillColor=none;spacingLeft=4;fontSize=12;verticalAlign=top;resizable=0;rotatable=0;part=1;html=1;" vertex="1" parent="de5sUrcGSlNE6M8sQPrc-6">
          <mxGeometry y="50" width="160" height="80" as="geometry" />
        </mxCell>
        <mxCell id="de5sUrcGSlNE6M8sQPrc-8" value="&lt;font style=&quot;font-size: 22px;&quot;&gt;Album&lt;/font&gt;" style="swimlane;childLayout=stackLayout;horizontal=1;startSize=50;horizontalStack=0;rounded=1;fontSize=14;fontStyle=0;strokeWidth=2;resizeParent=0;resizeLast=1;shadow=0;dashed=0;align=center;arcSize=4;whiteSpace=wrap;html=1;" vertex="1" parent="1">
          <mxGeometry x="710" y="820" width="160" height="170" as="geometry" />
        </mxCell>
        <mxCell id="de5sUrcGSlNE6M8sQPrc-9" value="&lt;font style=&quot;font-size: 18px;&quot;&gt;AlbumId&lt;/font&gt;&lt;div style=&quot;font-size: 18px;&quot;&gt;&lt;font style=&quot;font-size: 18px;&quot;&gt;Title&lt;/font&gt;&lt;/div&gt;&lt;div style=&quot;font-size: 18px;&quot;&gt;&lt;font style=&quot;font-size: 18px;&quot;&gt;Artist&lt;/font&gt;&lt;/div&gt;&lt;div style=&quot;font-size: 18px;&quot;&gt;&lt;font style=&quot;font-size: 18px;&quot;&gt;ReleaseDate&lt;/font&gt;&lt;/div&gt;&lt;div style=&quot;font-size: 18px;&quot;&gt;&lt;font style=&quot;font-size: 18px;&quot;&gt;Genre&lt;/font&gt;&lt;/div&gt;" style="align=left;strokeColor=none;fillColor=none;spacingLeft=4;fontSize=12;verticalAlign=top;resizable=0;rotatable=0;part=1;html=1;" vertex="1" parent="de5sUrcGSlNE6M8sQPrc-8">
          <mxGeometry y="50" width="160" height="120" as="geometry" />
        </mxCell>
        <mxCell id="de5sUrcGSlNE6M8sQPrc-10" value="&lt;font style=&quot;font-size: 16px;&quot;&gt;has&lt;/font&gt;&lt;div style=&quot;font-size: 16px;&quot;&gt;&lt;font style=&quot;font-size: 16px;&quot;&gt;created&lt;/font&gt;&lt;/div&gt;" style="text;html=1;align=center;verticalAlign=middle;resizable=0;points=[];autosize=1;strokeColor=none;fillColor=none;" vertex="1" parent="1">
          <mxGeometry x="1050" y="480" width="80" height="50" as="geometry" />
        </mxCell>
        <mxCell id="de5sUrcGSlNE6M8sQPrc-11" value="" style="fontSize=12;html=1;endArrow=ERzeroToMany;startArrow=ERmandOne;rounded=0;exitX=0.89;exitY=0.027;exitDx=0;exitDy=0;entryX=0.5;entryY=1;entryDx=0;entryDy=0;exitPerimeter=0;" edge="1" parent="1" source="de5sUrcGSlNE6M8sQPrc-2" target="de5sUrcGSlNE6M8sQPrc-7">
          <mxGeometry width="100" height="100" relative="1" as="geometry">
            <mxPoint x="930" y="560" as="sourcePoint" />
            <mxPoint x="1030" y="460" as="targetPoint" />
            <Array as="points">
              <mxPoint x="1052" y="530" />
              <mxPoint x="1150" y="530" />
            </Array>
          </mxGeometry>
        </mxCell>
        <mxCell id="de5sUrcGSlNE6M8sQPrc-12" value="" style="fontSize=12;html=1;endArrow=ERzeroToMany;startArrow=ERmandOne;rounded=0;exitX=0;exitY=0.25;exitDx=0;exitDy=0;entryX=1;entryY=0.5;entryDx=0;entryDy=0;" edge="1" parent="1" source="de5sUrcGSlNE6M8sQPrc-3" target="de5sUrcGSlNE6M8sQPrc-5">
          <mxGeometry width="100" height="100" relative="1" as="geometry">
            <mxPoint x="780" y="740" as="sourcePoint" />
            <mxPoint x="780" y="580" as="targetPoint" />
          </mxGeometry>
        </mxCell>
        <mxCell id="de5sUrcGSlNE6M8sQPrc-13" value="&lt;font style=&quot;font-size: 16px;&quot;&gt;has&lt;/font&gt;&lt;div style=&quot;font-size: 16px;&quot;&gt;&lt;font style=&quot;font-size: 16px;&quot;&gt;uploaded&lt;/font&gt;&lt;/div&gt;" style="text;html=1;align=center;verticalAlign=middle;resizable=0;points=[];autosize=1;strokeColor=none;fillColor=none;" vertex="1" parent="1">
          <mxGeometry x="825" y="605" width="90" height="50" as="geometry" />
        </mxCell>
        <mxCell id="de5sUrcGSlNE6M8sQPrc-14" value="" style="edgeStyle=orthogonalEdgeStyle;fontSize=12;html=1;endArrow=ERoneToMany;startArrow=ERoneToMany;rounded=0;entryX=0;entryY=0.5;entryDx=0;entryDy=0;exitX=1.008;exitY=0.101;exitDx=0;exitDy=0;exitPerimeter=0;" edge="1" parent="1" source="de5sUrcGSlNE6M8sQPrc-4" target="de5sUrcGSlNE6M8sQPrc-6">
          <mxGeometry width="100" height="100" relative="1" as="geometry">
            <mxPoint x="680" y="580" as="sourcePoint" />
            <mxPoint x="860" y="410" as="targetPoint" />
          </mxGeometry>
        </mxCell>
        <mxCell id="de5sUrcGSlNE6M8sQPrc-15" value="&lt;font style=&quot;font-size: 16px;&quot;&gt;contains&lt;/font&gt;" style="text;html=1;align=center;verticalAlign=middle;resizable=0;points=[];autosize=1;strokeColor=none;fillColor=none;" vertex="1" parent="1">
          <mxGeometry x="710" y="510" width="80" height="30" as="geometry" />
        </mxCell>
        <mxCell id="de5sUrcGSlNE6M8sQPrc-16" value="" style="edgeStyle=orthogonalEdgeStyle;fontSize=12;html=1;endArrow=ERmandOne;startArrow=ERmandOne;rounded=0;exitX=1;exitY=0.25;exitDx=0;exitDy=0;entryX=0.358;entryY=1.063;entryDx=0;entryDy=0;entryPerimeter=0;" edge="1" parent="1" source="de5sUrcGSlNE6M8sQPrc-9" target="de5sUrcGSlNE6M8sQPrc-3">
          <mxGeometry width="100" height="100" relative="1" as="geometry">
            <mxPoint x="960" y="920" as="sourcePoint" />
            <mxPoint x="1060" y="820" as="targetPoint" />
          </mxGeometry>
        </mxCell>
        <mxCell id="de5sUrcGSlNE6M8sQPrc-17" value="&lt;font style=&quot;font-size: 16px;&quot;&gt;has&lt;/font&gt;&lt;div style=&quot;font-size: 16px;&quot;&gt;&lt;font style=&quot;font-size: 16px;&quot;&gt;released&lt;/font&gt;&lt;/div&gt;" style="text;html=1;align=center;verticalAlign=middle;resizable=0;points=[];autosize=1;strokeColor=none;fillColor=none;" vertex="1" parent="1">
          <mxGeometry x="970" y="730" width="80" height="50" as="geometry" />
        </mxCell>
        <mxCell id="de5sUrcGSlNE6M8sQPrc-18" value="" style="edgeStyle=orthogonalEdgeStyle;fontSize=12;html=1;endArrow=ERoneToMany;startArrow=ERmandOne;rounded=0;exitX=-0.018;exitY=0.39;exitDx=0;exitDy=0;exitPerimeter=0;entryX=0.5;entryY=1;entryDx=0;entryDy=0;" edge="1" parent="1" source="de5sUrcGSlNE6M8sQPrc-9" target="de5sUrcGSlNE6M8sQPrc-5">
          <mxGeometry width="100" height="100" relative="1" as="geometry">
            <mxPoint x="510" y="970" as="sourcePoint" />
            <mxPoint x="610" y="870" as="targetPoint" />
          </mxGeometry>
        </mxCell>
        <mxCell id="de5sUrcGSlNE6M8sQPrc-19" value="&lt;font style=&quot;font-size: 16px;&quot;&gt;contains&lt;/font&gt;" style="text;html=1;align=center;verticalAlign=middle;resizable=0;points=[];autosize=1;strokeColor=none;fillColor=none;" vertex="1" parent="1">
          <mxGeometry x="575" y="760" width="80" height="30" as="geometry" />
        </mxCell>
        <mxCell id="de5sUrcGSlNE6M8sQPrc-20" value="&lt;font style=&quot;font-size: 22px;&quot;&gt;Following&lt;/font&gt;" style="swimlane;childLayout=stackLayout;horizontal=1;startSize=50;horizontalStack=0;rounded=1;fontSize=14;fontStyle=0;strokeWidth=2;resizeParent=0;resizeLast=1;shadow=0;dashed=0;align=center;arcSize=4;whiteSpace=wrap;html=1;" vertex="1" parent="1">
          <mxGeometry x="1210" y="600" width="160" height="120" as="geometry" />
        </mxCell>
        <mxCell id="de5sUrcGSlNE6M8sQPrc-21" value="&lt;span style=&quot;font-size: 16px;&quot;&gt;FollowerId&lt;/span&gt;" style="align=left;strokeColor=none;fillColor=none;spacingLeft=4;fontSize=12;verticalAlign=top;resizable=0;rotatable=0;part=1;html=1;" vertex="1" parent="de5sUrcGSlNE6M8sQPrc-20">
          <mxGeometry y="50" width="160" height="70" as="geometry" />
        </mxCell>
        <mxCell id="de5sUrcGSlNE6M8sQPrc-22" value="" style="fontSize=12;html=1;endArrow=ERzeroToMany;endFill=1;startArrow=ERzeroToMany;rounded=0;exitX=1.012;exitY=0.16;exitDx=0;exitDy=0;entryX=0;entryY=0;entryDx=0;entryDy=0;exitPerimeter=0;" edge="1" parent="1" source="de5sUrcGSlNE6M8sQPrc-3" target="de5sUrcGSlNE6M8sQPrc-21">
          <mxGeometry width="100" height="100" relative="1" as="geometry">
            <mxPoint x="1140" y="949" as="sourcePoint" />
            <mxPoint x="1982" y="1020" as="targetPoint" />
          </mxGeometry>
        </mxCell>
        <mxCell id="de5sUrcGSlNE6M8sQPrc-23" value="" style="fontSize=12;html=1;endArrow=ERzeroToMany;endFill=1;startArrow=ERzeroToMany;rounded=0;entryX=0;entryY=0.75;entryDx=0;entryDy=0;exitX=1;exitY=0.75;exitDx=0;exitDy=0;" edge="1" parent="1" source="de5sUrcGSlNE6M8sQPrc-5" target="de5sUrcGSlNE6M8sQPrc-3">
          <mxGeometry width="100" height="100" relative="1" as="geometry">
            <mxPoint x="660" y="689" as="sourcePoint" />
            <mxPoint x="894" y="689" as="targetPoint" />
          </mxGeometry>
        </mxCell>
        <mxCell id="de5sUrcGSlNE6M8sQPrc-24" value="&lt;font style=&quot;font-size: 16px;&quot;&gt;has&lt;/font&gt;&lt;div style=&quot;font-size: 16px;&quot;&gt;&lt;font style=&quot;font-size: 16px;&quot;&gt;liked&lt;/font&gt;&lt;/div&gt;" style="text;html=1;align=center;verticalAlign=middle;resizable=0;points=[];autosize=1;strokeColor=none;fillColor=none;" vertex="1" parent="1">
          <mxGeometry x="835" y="690" width="60" height="50" as="geometry" />
        </mxCell>
        <mxCell id="de5sUrcGSlNE6M8sQPrc-25" value="&lt;font style=&quot;font-size: 22px;&quot;&gt;Comments&lt;/font&gt;" style="swimlane;childLayout=stackLayout;horizontal=1;startSize=50;horizontalStack=0;rounded=1;fontSize=14;fontStyle=0;strokeWidth=2;resizeParent=0;resizeLast=1;shadow=0;dashed=0;align=center;arcSize=4;whiteSpace=wrap;html=1;" vertex="1" parent="1">
          <mxGeometry x="620" y="140" width="160" height="140" as="geometry" />
        </mxCell>
        <mxCell id="de5sUrcGSlNE6M8sQPrc-26" value="&lt;span style=&quot;font-size: 18px;&quot;&gt;CommentID&lt;/span&gt;&lt;div&gt;&lt;span style=&quot;font-size: 18px;&quot;&gt;CommentText&lt;/span&gt;&lt;/div&gt;&lt;div&gt;&lt;span style=&quot;font-size: 18px;&quot;&gt;CommentDate&lt;/span&gt;&lt;/div&gt;" style="align=left;strokeColor=none;fillColor=none;spacingLeft=4;fontSize=12;verticalAlign=top;resizable=0;rotatable=0;part=1;html=1;" vertex="1" parent="de5sUrcGSlNE6M8sQPrc-25">
          <mxGeometry y="50" width="160" height="90" as="geometry" />
        </mxCell>
        <mxCell id="de5sUrcGSlNE6M8sQPrc-29" value="" style="fontSize=12;html=1;endArrow=ERzeroToOne;startArrow=ERmandOne;rounded=0;exitX=0.5;exitY=0;exitDx=0;exitDy=0;entryX=0.75;entryY=1;entryDx=0;entryDy=0;" edge="1" parent="1" source="de5sUrcGSlNE6M8sQPrc-2" target="de5sUrcGSlNE6M8sQPrc-26">
          <mxGeometry width="100" height="100" relative="1" as="geometry">
            <mxPoint x="750" y="410" as="sourcePoint" />
            <mxPoint x="850" y="310" as="targetPoint" />
          </mxGeometry>
        </mxCell>
        <mxCell id="de5sUrcGSlNE6M8sQPrc-30" value="" style="fontSize=12;html=1;endArrow=ERzeroToOne;startArrow=ERmandOne;rounded=0;exitX=0.75;exitY=0;exitDx=0;exitDy=0;entryX=0.124;entryY=1.022;entryDx=0;entryDy=0;entryPerimeter=0;" edge="1" parent="1" source="de5sUrcGSlNE6M8sQPrc-4" target="de5sUrcGSlNE6M8sQPrc-26">
          <mxGeometry width="100" height="100" relative="1" as="geometry">
            <mxPoint x="660" y="510" as="sourcePoint" />
            <mxPoint x="410" y="200" as="targetPoint" />
          </mxGeometry>
        </mxCell>
        <mxCell id="de5sUrcGSlNE6M8sQPrc-31" value="Has" style="text;html=1;align=center;verticalAlign=middle;resizable=0;points=[];autosize=1;strokeColor=none;fillColor=none;" vertex="1" parent="1">
          <mxGeometry x="580" y="428" width="40" height="30" as="geometry" />
        </mxCell>
        <mxCell id="de5sUrcGSlNE6M8sQPrc-32" value="Has&lt;div&gt;Commented&lt;/div&gt;" style="text;html=1;align=center;verticalAlign=middle;resizable=0;points=[];autosize=1;strokeColor=none;fillColor=none;" vertex="1" parent="1">
          <mxGeometry x="925" y="483" width="90" height="40" as="geometry" />
        </mxCell>
      </root>
    </mxGraphModel>
  </diagram>
</mxfile>
